<svg xmlns="http://www.w3.org/2000/svg" width="420" height="420" viewBox="0 0 420 420">
<rect width="420" height="420" fill="#07080d"/>
<text x="210.0" y="24" fill="#eaf0ff" font-family="system-ui,sans-serif" font-size="15" text-anchor="middle">Memory-model calibration (held-out)</text>
<line x1="50.0" y1="370.0" x2="50.0" y2="50.0" stroke="#1c2230" stroke-width="1"/>
<line x1="50.0" y1="370.0" x2="370.0" y2="370.0" stroke="#1c2230" stroke-width="1"/>
<text x="50.0" y="386.0" fill="#1c2230" font-family="system-ui" font-size="9" text-anchor="middle">0.0</text>
<text x="42.0" y="373.0" fill="#1c2230" font-family="system-ui" font-size="9" text-anchor="end">0.0</text>
<line x1="114.0" y1="370.0" x2="114.0" y2="50.0" stroke="#1c2230" stroke-width="1"/>
<line x1="50.0" y1="306.0" x2="370.0" y2="306.0" stroke="#1c2230" stroke-width="1"/>
<text x="114.0" y="386.0" fill="#1c2230" font-family="system-ui" font-size="9" text-anchor="middle">0.2</text>
<text x="42.0" y="309.0" fill="#1c2230" font-family="system-ui" font-size="9" text-anchor="end">0.2</text>
<line x1="178.0" y1="370.0" x2="178.0" y2="50.0" stroke="#1c2230" stroke-width="1"/>
<line x1="50.0" y1="242.0" x2="370.0" y2="242.0" stroke="#1c2230" stroke-width="1"/>
<text x="178.0" y="386.0" fill="#1c2230" font-family="system-ui" font-size="9" text-anchor="middle">0.4</text>
<text x="42.0" y="245.0" fill="#1c2230" font-family="system-ui" font-size="9" text-anchor="end">0.4</text>
<line x1="242.0" y1="370.0" x2="242.0" y2="50.0" stroke="#1c2230" stroke-width="1"/>
<line x1="50.0" y1="178.0" x2="370.0" y2="178.0" stroke="#1c2230" stroke-width="1"/>
<text x="242.0" y="386.0" fill="#1c2230" font-family="system-ui" font-size="9" text-anchor="middle">0.6</text>
<text x="42.0" y="181.0" fill="#1c2230" font-family="system-ui" font-size="9" text-anchor="end">0.6</text>
<line x1="306.0" y1="370.0" x2="306.0" y2="50.0" stroke="#1c2230" stroke-width="1"/>
<line x1="50.0" y1="114.0" x2="370.0" y2="114.0" stroke="#1c2230" stroke-width="1"/>
<text x="306.0" y="386.0" fill="#1c2230" font-family="system-ui" font-size="9" text-anchor="middle">0.8</text>
<text x="42.0" y="117.0" fill="#1c2230" font-family="system-ui" font-size="9" text-anchor="end">0.8</text>
<line x1="370.0" y1="370.0" x2="370.0" y2="50.0" stroke="#1c2230" stroke-width="1"/>
<line x1="50.0" y1="50.0" x2="370.0" y2="50.0" stroke="#1c2230" stroke-width="1"/>
<text x="370.0" y="386.0" fill="#1c2230" font-family="system-ui" font-size="9" text-anchor="middle">1.0</text>
<text x="42.0" y="53.0" fill="#1c2230" font-family="system-ui" font-size="9" text-anchor="end">1.0</text>
<line x1="50.0" y1="370.0" x2="370.0" y2="50.0" stroke="#3a4257" stroke-width="1.5" stroke-dasharray="4 4"/>
<polyline points="133.5,370.0 163.8,236.7 195.5,252.7 225.9,202.1 259.8,155.6 291.9,132.7 323.7,111.2 350.9,76.3" fill="none" stroke="#4ce0ff" stroke-width="2"/>
<circle cx="133.5" cy="370.0" r="3.5" fill="#4ce0ff"/>
<circle cx="163.8" cy="236.7" r="3.5" fill="#4ce0ff"/>
<circle cx="195.5" cy="252.7" r="3.5" fill="#4ce0ff"/>
<circle cx="225.9" cy="202.1" r="3.5" fill="#4ce0ff"/>
<circle cx="259.8" cy="155.6" r="3.5" fill="#4ce0ff"/>
<circle cx="291.9" cy="132.7" r="3.5" fill="#4ce0ff"/>
<circle cx="323.7" cy="111.2" r="3.5" fill="#4ce0ff"/>
<circle cx="350.9" cy="76.3" r="3.5" fill="#4ce0ff"/>
<text x="210.0" y="410" fill="#eaf0ff" font-family="system-ui" font-size="11" text-anchor="middle">predicted recall</text>
<text x="14" y="210.0" fill="#eaf0ff" font-family="system-ui" font-size="11" text-anchor="middle" transform="rotate(-90 14 210.0)">observed recall</text>
<text x="56" y="64" fill="#f5b14c" font-family="system-ui" font-size="11">Brier 0.141 · log-loss 0.445 · ECE 0.031</text>
</svg>